<svg width="122" height="47" viewBox="0 0 122 47" fill="none" xmlns="http://www.w3.org/2000/svg">
<path d="M63.8023 34.3344H60.8932L58.031 27.2041L55.148 34.3344H52.239L47.8287 23.3797H51.2301L53.6935 30.3471L56.4847 23.3797H59.5566L62.3477 30.3471L64.8112 23.3797H68.2126L63.8023 34.3344Z" fill="black"/>
<path d="M79.2105 29.9484H71.8686C72.1494 31.3786 73.3925 31.9888 75.0585 31.9888C76.177 31.9681 77.2852 31.7703 78.3419 31.4029V34.0553C77.2866 34.428 76.1775 34.6259 75.0585 34.6413C71.0243 34.6413 68.632 32.4604 68.632 28.8701C68.632 25.4028 70.7123 23.0763 74.027 23.0763C77.404 23.0763 79.2815 25.3994 79.2815 28.8701C79.2821 29.2307 79.2583 29.5909 79.2105 29.9484ZM74.027 25.5381C72.9487 25.5381 72.1026 26.2644 71.9154 27.4606H76.1836C75.9738 26.1483 75.1295 25.5381 74.027 25.5381Z" fill="black"/>
<path d="M86.6235 34.6394C84.9365 34.5979 83.26 34.3617 81.6272 33.9356V17.1403H84.7477V23.3813C85.3571 23.1962 85.9885 23.0936 86.6252 23.0762C90.167 23.0762 92.2543 25.4443 92.2543 28.87C92.2543 32.2956 90.167 34.6394 86.6235 34.6394ZM86.6235 25.7252C85.9903 25.7248 85.3596 25.8034 84.746 25.9592V31.7772C85.3626 31.9136 85.9919 31.9845 86.6235 31.9887C88.1248 31.9887 88.969 30.9104 88.969 28.8682C88.969 26.826 88.1248 25.7338 86.6235 25.7338V25.7252Z" fill="black"/>
<path d="M97.7183 34.3344H94.5978V23.3797H97.7183V34.3344Z" fill="black"/>
<path d="M107.969 34.3343L105.131 30.9347L103.982 32.2488V34.3291H100.862V17.1403H103.982V28.095L107.969 23.3796H111.652L106.914 28.8682L111.652 34.3343H107.969Z" fill="black"/>
<path d="M116.428 34.6394C115.132 34.6259 113.844 34.4286 112.604 34.0534V31.4027C113.848 31.7617 115.133 31.9587 116.428 31.9887C117.789 31.9887 118.187 31.5657 118.187 31.1219C118.187 30.6781 117.841 30.3469 116.898 30.3469C114.082 30.3469 112.441 29.2218 112.441 26.8277C112.441 24.9502 114.129 23.0744 117.366 23.0744C118.669 23.0864 119.965 23.2837 121.213 23.6604V26.3354C119.965 25.956 118.67 25.7506 117.366 25.7251C116.005 25.7251 115.606 26.1481 115.606 26.5919C115.606 27.0357 115.982 27.3651 116.896 27.3651C119.734 27.3651 121.353 28.492 121.353 30.8844C121.353 32.7619 119.689 34.6394 116.428 34.6394Z" fill="black"/>
<path d="M97.7308 18.4821H94.5999V21.613H97.7308V18.4821Z" fill="black"/>
<path opacity="0.5" d="M41.9204 1.7077L29.2477 9.15527e-05L21.3407 10.2579L34.01 11.8667L41.9204 1.7077Z" fill="black"/>
<path d="M39.1832 24.8878L31.394 34.9965L36.3192 46.8406L44.1136 36.7301L39.1832 24.8878Z" fill="black"/>
<path opacity="0.78" d="M20.5573 10.5804L7.90713 8.8468L0.069458 19.0318L12.711 20.7377L20.5573 10.5804Z" fill="black"/>
<path d="M31.0022 35.156L18.2567 33.5091L23.1282 45.2717L35.9344 47.0001L31.0022 35.156Z" fill="black"/>
<path opacity="0.78" d="M0 19.4548L4.90092 31.2867L17.5719 32.9908L12.6519 21.1589L0 19.4548Z" fill="black"/>
<path d="M38.845 24.6262L26.1705 22.9099L18.3086 33.0897L31.0559 34.7331L38.845 24.6262Z" fill="black"/>
<path opacity="0.5" d="M39.294 24.0384L47.1819 13.8309L42.2533 1.97125L34.3497 12.1268L39.294 24.0384Z" fill="black"/>
<path opacity="0.78" d="M25.8378 22.6498L20.8901 10.8405L13.0472 20.9977L17.9672 32.8296L25.8378 22.6498Z" fill="black"/>
<path opacity="0.5" d="M38.9022 24.2031L33.9544 12.288L21.2834 10.6774L26.2312 22.4868L38.9022 24.2031Z" fill="black"/>
</svg>